<svg xmlns="http://www.w3.org/2000/svg" viewBox="0 0 743.79 236.73"><g opacity=".1" fill="#fff"><path d="M0 230.54q1.74-27.12 12.76-47.49t34.33-38.92q7.29-5.72 22.12-15.7t21.48-15.38q11.25-9.36 16.81-18.95a38.91 38.91 0 0 0 5.55-19.74q0-14.75-7.3-22.83t-20.61-8.09q-14.91 0-22.51 10.55t-7.62 31.45l-52.64-.16q.31-39 22.92-62.15T85.46-.02q37.41 0 60.57 20.06t23.15 52.4a74.17 74.17 0 0 1-7.22 32.9q-7.21 14.82-24.5 31-8.88 8.4-30.6 23.46T76.1 185.33h91.17v45.21zM191.22 118.44q0-59.14 21.64-88.63T277.95.32q43.59 0 65.32 29.49t21.72 88.63q0 59.31-21.72 88.79t-65.32 29.49q-43.45 0-65.09-29.49t-21.64-88.79zm57.87 0q0 41.07 6.74 58.59t22.12 17.52q15.53 0 22.35-17.68t6.82-58.43q0-40.44-6.82-58t-22.35-17.6q-15.39 0-22.12 16.81t-6.74 55.65zM383.07 230.54q1.74-27.12 12.76-47.49t34.33-38.92q7.29-5.69 22.12-15.69t21.48-15.38q11.26-9.36 16.81-18.95a38.91 38.91 0 0 0 5.55-19.74q0-14.75-7.29-22.83t-20.62-8.1q-14.89 0-22.51 10.55t-7.61 31.45l-52.64-.16q.32-39 22.91-62.15T468.55 0q37.42 0 60.57 20.06t23.13 52.38a74.3 74.3 0 0 1-7.21 32.9q-7.23 14.82-24.5 31-8.88 8.4-30.6 23.46t-30.76 25.53h91.17v45.21zM574.61 230.54q1.74-27.12 12.76-47.49t34.33-38.92q7.29-5.72 22.12-15.7t21.48-15.38q11.25-9.36 16.81-18.95a38.91 38.91 0 0 0 5.55-19.74q0-14.75-7.3-22.83t-20.61-8.09q-14.91 0-22.51 10.55t-7.61 31.45l-52.65-.16q.32-39 22.92-62.15T660.07-.02q37.41 0 60.57 20.06t23.15 52.4a74.17 74.17 0 0 1-7.22 32.9q-7.21 14.82-24.49 31-8.89 8.4-30.61 23.46t-30.76 25.53h91.17v45.21z"/></g></svg>